<?xml version="1.0" encoding="UTF-8"?><svg id="Reps" xmlns="http://www.w3.org/2000/svg" viewBox="0 0 360 360"><path d="m342.17,156.32c-7.13-5.65-12.66-12.68-18.03-20.16-6.36-8.87-13.38-17.41-20.34-25.89-7.41-9.02-15.62-17.38-23.4-26.11-5.49-6.17-10.77-12.51-16.24-18.7l-46.89-51.49c-.91-1.95-4.38-3.25-7.07-2.86-3.03.43-3.02,2.31-4.02,4.76l-5.19,81.86c-.46,9.64-2.62,18.77-4.56,28.05-.5,2.37-1.05,4.64-3.71,5.06-2.66.41-4.08-1.74-5.33-3.63-4.39-6.67-8.33-13.67-13.07-20.07-11.32-15.29-18.71-33.02-30.51-48.03l-31.59-47.1c-2.62-4.52-7.49-5.36-10.37-5.12-21.15,1.83-39.56.03-61.02-.04-14.71-.05-20.62-.75-19.15,14.3l4.22,69.7-1.64,100-2.84,47.63c1.51,36.62-2.48,68.85-6.05,105.03-.72,7.27-.2,9.38,7.22,9.63,0,0,61.4-1.51,61.4-1.51,5.71-.5,11.02-6.58,14.69-10.42,4.34-4.54,8.24-9.47,12.15-14.37,3.79-4.74,8.2-8.95,12.51-13.22,7.9-7.82,15.99-15.48,23.25-23.91,3.24-3.76,6.31-7.68,9.14-11.76,13.35-19.22,30.52-34.61,45.81-51.86.39-.44,1.38-.34,3.54-.81,1.46,11.88.31,23.27,2.32,34.51l2.98,77.79c-.23,5.16.46,6.97,4.42,8.3,3.76,1.26,7.06-1.79,8.44-4.3,7.29-13.28,14.34-26.71,21.84-39.87l79-103.67c7.8-10.72,15.77-21.17,20.09-33.9,1.1-3.24,1.04-5.41-2.02-7.83Zm-244.5,48.96c-9.32,5.23-18.88,4.32-27.86-1.68-4.73-3.16-9.24-6.29-11.77-11.85-2.76-6.08-2.49-11.82.57-17.4,6.92-12.63,25.62-17.91,38.5-11.09,7.36,3.9,11.28,10.65,11.28,21.22-1.28,6.86-2.23,16.02-10.73,20.8Zm85.03,2.36c-3.32.68-6.79.68-8.5.84-12,.49-20.19-5.47-22.61-15.29-.64-2.57-.91-5.24-1.34-7.86-1.84-11.39,7.49-23.2,22.36-22.22,14.52.96,25.89,14.55,24.69,28.83-.55,6.57-7.48,14.24-14.6,15.7Zm81.19-10.34c-5.11,7.29-14.1,13.46-23.35,12.72-6.28-.51-13.09-7.86-16-14.29-.53-1.18-.93-2.33-1.18-3.4-2.53-11.14,2.34-25.88,15.04-27.99,4.32-.72,5.66-1.02,7.84-1.49,6.13-1.32,10.98.94,14.34,5.99,6.45,9.67,10.54,18.13,3.31,28.45Z"/></svg>