<?xml version="1.0" encoding="UTF-8"?><svg id="Icons" xmlns="http://www.w3.org/2000/svg" width="30" height="30" viewBox="0 0 30 30"><path d="m29.21,13.02c-.63-.47-1.11-1.06-1.58-1.69-.56-.74-1.18-1.46-1.79-2.17-.65-.76-1.37-1.46-2.06-2.19-.48-.52-.95-1.05-1.43-1.57l-4.12-4.31c-.08-.16-.38-.27-.62-.24-.27.04-.27.19-.35.4l-.46,6.85c-.04.81-.23,1.57-.4,2.35-.04.2-.09.39-.33.42-.23.03-.36-.15-.47-.3-.39-.56-.73-1.14-1.15-1.68-.99-1.28-1.64-2.77-2.68-4.02l-2.78-3.94c-.23-.38-.66-.45-.91-.43-1.86.15-3.48,0-5.36,0-1.29,0-1.81-.06-1.68,1.2l.37,5.84-.14,8.37-.25,3.99c.13,3.07-.22,5.76-.53,8.79-.06.61-.02.79.63.81,0,0,5.39-.13,5.39-.13.5-.04.97-.55,1.29-.87.38-.38.72-.79,1.07-1.2s.72-.75,1.1-1.11c.69-.65,1.41-1.3,2.04-2,.28-.32.55-.64.8-.98,1.17-1.61,2.68-2.9,4.02-4.34.03-.04.12-.03.31-.07.13.99.03,1.95.2,2.89l.26,6.51c-.02.43.04.58.39.69.33.11.62-.15.74-.36.64-1.11,1.26-2.24,1.92-3.34l6.94-8.68c.68-.9,1.39-1.77,1.76-2.84.1-.27.09-.45-.18-.66Zm-21.82,4.1c-.78.44-1.58.36-2.33-.14-.4-.26-.77-.53-.99-.99-.23-.51-.21-.99.05-1.46.58-1.06,2.14-1.5,3.22-.93.62.33.94.89.94,1.78-.11.57-.19,1.34-.9,1.74Zm7.12.2c-.28.06-.57.06-.71.07-1,.04-1.69-.46-1.89-1.28-.05-.22-.08-.44-.11-.66-.15-.95.63-1.94,1.87-1.86,1.22.08,2.17,1.22,2.07,2.41-.05.55-.63,1.19-1.22,1.31Zm7.96-.87c-.43.61-1.18,1.13-1.96,1.06-.53-.04-1.1-.66-1.34-1.2-.04-.1-.08-.19-.1-.28-.21-.93.2-2.17,1.26-2.34.36-.06.47-.09.66-.12.51-.11.92.08,1.2.5.54.81.88,1.52.28,2.38Z"/></svg>