<?xml version="1.0" encoding="UTF-8"?><svg id="Icons" xmlns="http://www.w3.org/2000/svg" width="60" height="60" viewBox="0 0 60 60"><path d="m58.18,26.07c-1.24-.94-2.2-2.1-3.14-3.34-1.11-1.47-2.33-2.89-3.54-4.29-1.29-1.5-2.72-2.88-4.07-4.33-.96-1.02-1.87-2.07-2.83-3.1l-8.16-8.54c-.16-.32-.76-.54-1.23-.47-.53.07-.53.38-.7.79l-.9,13.57c-.08,1.6-.46,3.11-.79,4.65-.09.39-.18.77-.65.84-.46.07-.71-.29-.93-.6-.76-1.11-1.45-2.27-2.27-3.33-1.97-2.53-3.26-5.48-5.31-7.96l-5.5-7.81c-.46-.75-1.3-.89-1.8-.85-3.68.3-6.88,0-10.62,0-2.56,0-3.59-.12-3.33,2.37l.73,11.56-.29,16.58-.49,7.9c.26,6.07-.43,11.41-1.05,17.41-.12,1.21-.03,1.56,1.26,1.6,0,0,10.68-.25,10.68-.25.99-.08,1.92-1.09,2.56-1.73.75-.75,1.43-1.57,2.11-2.38s1.43-1.48,2.18-2.19c1.37-1.3,2.78-2.57,4.05-3.96.56-.62,1.1-1.27,1.59-1.95,2.32-3.19,5.31-5.74,7.97-8.6.07-.07.24-.06.62-.13.25,1.97.05,3.86.4,5.72l.52,12.9c-.04.86.08,1.16.77,1.38.65.21,1.23-.3,1.47-.71,1.27-2.2,2.5-4.43,3.8-6.61l13.75-17.19c1.36-1.78,2.74-3.51,3.5-5.62.19-.54.18-.9-.35-1.3Zm-43.21,8.12c-1.54.87-3.13.72-4.62-.28-.78-.52-1.53-1.04-1.95-1.96-.46-1.01-.41-1.96.09-2.88,1.15-2.09,4.25-2.97,6.38-1.84,1.22.65,1.87,1.77,1.87,3.52-.21,1.14-.37,2.66-1.78,3.45Zm14.1.39c-.55.11-1.13.11-1.41.14-1.99.08-3.35-.91-3.75-2.54-.11-.43-.15-.87-.22-1.3-.3-1.89,1.24-3.85,3.71-3.68,2.41.16,4.29,2.41,4.09,4.78-.09,1.09-1.24,2.36-2.42,2.6Zm15.77-1.71c-.85,1.21-2.34,2.23-3.87,2.11-1.04-.08-2.17-1.3-2.65-2.37-.09-.2-.15-.39-.2-.56-.42-1.85.39-4.29,2.49-4.64.72-.12.94-.17,1.3-.25,1.02-.22,1.82.16,2.38.99,1.07,1.6,1.75,3.01.55,4.72Z"/></svg>