<?xml version="1.0" encoding="UTF-8"?><svg id="Reps" xmlns="http://www.w3.org/2000/svg" viewBox="0 0 360 360"><path d="m314.22,55.15c-6.62.3-18.92,4.38-57.15.63-38.23-2.39-72.72,2.27-76.46,2.29h-3.06c-4.31-.52-39.47-.41-78.94,2.55-17.56,1.72-35.2,1-52.79.13-6-.3-12.02-.68-18.03-.5-7.31.22-13.31,5.66-16.24,12.05-2.61,5.7-2.41,12.59-3.04,18.76-1.04,10.33-1.96,20.68-2.85,31.02-.8,9.41-2.68,19.33-2.32,28.76.18,4.79,3.28,10.43,8.36,11.64.36-1.6,31.94-.23,34.62-.27,24.37-.37,55.45,8.1,55.45,37.79,0,21.34-19.19,38.09-39.93,36.36-10.28-.85-19.02,7.5-19.02,17.82l.14,36.09c-.18,16.32,5.93,14.82,14.62,14.8,4.69.03,9.38.03,14.07.01,16.67-.07,33.55-.39,50.48-.83,3.99-.1,7.37-2.85,8.45-6.69,3.98-14.26,16.95-24.74,32.48-24.74s27.51,9.7,32,23.13c1.24,3.72,4.64,6.24,8.56,6.23,27.85-.13,55.7,1.06,83.55.31,8.23-.22,14.73-7.11,14.73-15.34v-39.5c0-6.88-5.63-12.31-12.5-11.98-7.22.35-14.41,1.31-21.57.34-6.94-.94-13.85-2.64-20.2-5.65-8.86-4.2-16.18-11.03-20.49-19.87-3.37-6.9-4.87-14.63-4.91-22.29l.35-13.07c11.76-2.12,34.4-8.41,51.85-16.52,26.72-12.42,45.76-22.69,68.73-63.19,22.18-39.12,20.1-41.67-28.93-40.29Z"/></svg>