<?xml version="1.0" encoding="UTF-8"?><svg id="Icons" xmlns="http://www.w3.org/2000/svg" width="30" height="30" viewBox="0 0 30 30"><path d="m26.12,4.66c-.55.02-1.57.36-4.74.05-3.17-.2-6.03.19-6.34.19h-.25c-.36-.04-3.27-.03-6.54.21-1.46.14-2.92.08-4.37.01-.5-.02-1-.06-1.49-.04-.61.02-1.1.47-1.35,1-.22.47-.2,1.04-.25,1.55-.09.86-.16,1.71-.24,2.57-.07.78-.22,1.6-.19,2.38.02.4.27.86.69.96.03-.13,2.65-.02,2.87-.02,2.02-.03,4.59.67,4.59,3.13,0,1.77-1.59,3.16-3.31,3.01-.85-.07-1.58.62-1.58,1.48v2.99c0,1.35.5,1.23,1.22,1.23.39,0,.78,0,1.17,0,1.38,0,2.78-.03,4.18-.07.33,0,.61-.24.7-.55.33-1.18,1.4-2.05,2.69-2.05s2.28.8,2.65,1.92c.1.31.38.52.71.52,2.31-.01,4.62.09,6.92.03.68-.02,1.22-.59,1.22-1.27v-3.27c0-.57-.47-1.02-1.04-.99-.6.03-1.19.11-1.79.03s-1.15-.22-1.67-.47c-.73-.35-1.34-.91-1.7-1.65-.28-.57-.4-1.21-.41-1.85l.03-1.08c.97-.18,2.85-.7,4.3-1.37,2.21-1.03,3.79-1.88,5.69-5.24,1.84-3.24,1.67-3.45-2.4-3.34Z"/></svg>