<?xml version="1.0" encoding="UTF-8"?><svg id="Icons" xmlns="http://www.w3.org/2000/svg" width="60" height="60" viewBox="0 0 60 60"><path d="m51.88,9.65c-1.08.05-3.08.71-9.31.1-6.23-.39-11.85.37-12.46.37h-.5c-.7-.08-6.43-.07-12.87.42-2.86.28-5.74.16-8.6.02-.98-.05-1.96-.11-2.94-.08-1.19.04-2.17.92-2.65,1.96-.43.93-.39,2.05-.49,3.06-.17,1.68-.32,3.37-.46,5.06-.13,1.53-.44,3.15-.38,4.69.03.78.53,1.7,1.36,1.9.06-.26,5.2-.04,5.64-.04,3.97-.06,9.04,1.32,9.04,6.16,0,3.48-3.13,6.21-6.51,5.93-1.67-.14-3.1,1.22-3.1,2.9l.02,5.88c-.03,2.66.97,2.42,2.38,2.41.76,0,1.53,0,2.29,0,2.72-.01,5.47-.06,8.23-.14.65-.02,1.2-.46,1.38-1.09.65-2.32,2.76-4.03,5.29-4.03s4.48,1.58,5.21,3.77c.2.61.76,1.02,1.4,1.01,4.54-.02,9.08.17,13.62.05,1.34-.04,2.4-1.16,2.4-2.5v-6.44c0-1.12-.92-2.01-2.04-1.95-1.18.06-2.35.21-3.52.06-1.13-.15-2.26-.43-3.29-.92-1.44-.69-2.64-1.8-3.34-3.24-.55-1.13-.79-2.38-.8-3.63l.06-2.13c1.92-.34,5.61-1.37,8.45-2.69,4.35-2.02,7.46-3.7,11.2-10.3,3.62-6.38,3.28-6.79-4.72-6.57Z"/></svg>