<?xml version="1.0" encoding="UTF-8"?><svg id="Icons" xmlns="http://www.w3.org/2000/svg" width="60" height="60" viewBox="0 0 60 60"><path d="m55.64,45.9l-9.4-1.04c-2.19-.46-20.8-3.25-23.01-3.6-5.61-.87-13.03-2.47-14.79-2.43-.66.02-1.32.03-1.98.04-.67,0-1.36-.21-2,.06-.77.32-1.01.89-1.11,1.65l.07.81c.13,1.41.23,5.16.33,6.58.12,1.61.22,3.22.32,4.83.06,1.09.14,2.18.14,3.26.05,1.07.23.99,1.69,1.64,2.52.67,11.36-.67,23.2.07,4.41-.1,8.83-.09,13.24.03,1.82.05,3.65.12,5.47.21,1.65.08,3.33.1,4.98.32.86.11,1.03-.26,1.19-1.03l1.8-5.23c.45-1.52.86-2.89.88-4.49,0-.84-.07-1.53-1.02-1.67Z"/><path d="m56.1,11.38c-.19-1.52-1.14-4.74-1.98-7.1-.53-1.49-1.91-2.49-3.49-2.53-.23,0-.49-.02-.79-.04-2.87-.16-.84.1-7.68.49,0,0-31.55,4.1-31.63,4.12-1.74.33-3.64.2-5.38.87-1.54.59-1.46,1.78-1.37,3.21.15,2.41.39,4.83.46,7.25.31,10.83-.71,15.45.29,16.7.33.3.54.65.75.79,1.22.82,2.83.82,4.08.04,4-2.48,12.93-7.54,21.66-9.38.23-.05.46-.12.67-.21,11.94-5.11,22.94-10.06,23.85-10.71,1.23-.89.76-2.44.57-3.5Z"/><path d="m44.15,23.13c-5.23.04-9.46,5.82-9.46,9.46,0,4.49,4.24,9.4,9.46,9.46,5.23-.03,9.46-5.68,9.46-9.46,0-3.97-4.24-11.44-9.46-9.46Zm5.98,10.96c-.31.28-.69.54-1.12.6-.49.07-1.1.05-1.6,0-.37-.03-.74-.21-1.04-.43-.56-.41-.98-1.09-.98-1.8,0-.67.47-1.33.97-1.74.67-.54,1.51-.58,2.33-.57.04,0,.07,0,.11,0,.67,0,1.22,0,1.76.45.39.33.74.83.74,1.36,0,.79-.63,1.62-1.19,2.12Z"/></svg>