<?xml version="1.0" encoding="UTF-8"?><svg id="Reps" xmlns="http://www.w3.org/2000/svg" viewBox="0 0 360 360"><path d="m337.5,277.69l-57.76-6.41c-13.44-2.85-127.78-19.98-141.35-22.09-34.44-5.36-80.05-15.19-90.87-14.93-4.05.1-8.09.19-12.14.22-4.12.03-8.32-1.3-12.29.34-4.75,1.96-6.21,5.45-6.83,10.16l.44,4.95c.78,8.67,1.43,31.72,2.05,40.4.71,9.88,1.37,19.77,1.94,29.66.38,6.67.86,13.37.86,20.05.29,6.55,1.42,6.09,10.38,10.08,15.49,4.12,69.79-4.14,142.53.44,27.1-.63,54.21-.53,81.31.17,11.2.29,22.4.75,33.59,1.3,10.16.5,20.48.62,30.57,1.97,5.26.7,6.32-1.61,7.34-6.35l11.09-32.11c2.75-9.34,5.31-17.76,5.4-27.56.05-5.16-.46-9.38-6.24-10.27Z"/><path d="m340.29,65.61c-1.14-9.31-6.98-29.11-12.16-43.59-3.26-9.12-11.76-15.3-21.44-15.56-1.43-.04-3.02-.11-4.85-.26-17.61-1.01-5.13.6-47.17,3.01,0,0-193.77,25.19-194.28,25.29-10.68,2.04-22.37,1.25-33.07,5.36-9.45,3.63-8.96,10.96-8.42,19.71.91,14.82,2.38,29.7,2.81,44.53,1.93,66.52-4.33,94.9,1.79,102.57,2.04,1.83,3.34,4.02,4.59,4.86,7.51,5.05,17.38,5.01,25.07.25,24.59-15.22,79.43-46.32,133.01-57.61,1.42-.3,2.8-.73,4.13-1.3,73.34-31.4,140.93-61.79,146.48-65.8,7.54-5.46,4.68-15.01,3.51-21.47Z"/><path d="m266.93,137.8c-32.1.24-58.13,35.78-58.13,58.12,0,27.58,26.02,57.75,58.13,58.13,32.1-.17,58.13-34.91,58.13-58.13,0-24.41-26.02-70.27-58.13-58.12Zm36.72,67.33c-1.91,1.72-4.26,3.31-6.86,3.69-3.04.44-6.76.28-9.82,0-2.28-.2-4.54-1.28-6.36-2.63-3.42-2.54-5.99-6.69-5.99-11.03,0-4.1,2.91-8.2,5.96-10.69,4.09-3.34,9.24-3.55,14.31-3.53.23,0,.45,0,.67,0,4.09,0,7.46-.03,10.82,2.79,2.4,2.02,4.56,5.11,4.56,8.36,0,4.83-3.89,9.96-7.29,13.03Z"/></svg>
