<?xml version="1.0" encoding="UTF-8"?><svg id="Icons" xmlns="http://www.w3.org/2000/svg" width="30" height="30" viewBox="0 0 30 30"><path d="m28.15,23.16l-4.82-.54c-1.12-.24-10.67-1.67-11.8-1.84-2.87-.45-6.68-1.27-7.59-1.25-.34,0-.68.02-1.01.02-.34,0-.69-.11-1.03.03-.4.16-.52.45-.57.85l.04.41c.07.72.12,2.65.17,3.37.06.83.11,1.65.16,2.48.03.56.07,1.12.07,1.67.02.55.12.51.87.84,1.29.34,5.83-.35,11.9.04,2.26-.05,4.53-.04,6.79.01.94.02,1.87.06,2.8.11.85.04,1.71.05,2.55.16.44.06.53-.13.61-.53l.93-2.68c.23-.78.44-1.48.45-2.3,0-.43-.04-.78-.52-.86Z"/><path d="m28.38,5.45c-.1-.78-.58-2.43-1.01-3.64-.27-.76-.98-1.28-1.79-1.3-.12,0-.25,0-.4-.02-1.47-.08-.43.05-3.94.25,0,0-16.18,2.1-16.22,2.11-.89.17-1.87.1-2.76.45-.79.3-.75.91-.7,1.65.08,1.24.2,2.48.23,3.72.16,5.55-.36,7.92.15,8.56.17.15.28.34.38.41.63.42,1.45.42,2.09.02,2.05-1.27,6.63-3.87,11.1-4.81.12-.02.23-.06.35-.11,6.12-2.62,11.77-5.16,12.23-5.49.63-.46.39-1.25.29-1.79Z"/><path d="m22.26,11.48c-2.68.02-4.85,2.99-4.85,4.85,0,2.3,2.17,4.82,4.85,4.85,2.68-.01,4.85-2.91,4.85-4.85,0-2.04-2.17-5.87-4.85-4.85Zm3.07,5.62c-.16.14-.36.28-.57.31-.25.04-.56.02-.82,0-.19-.02-.38-.11-.53-.22-.29-.21-.5-.56-.5-.92,0-.34.24-.68.5-.89.34-.28.77-.3,1.19-.29.02,0,.04,0,.06,0,.34,0,.62,0,.9.23.2.17.38.43.38.7,0,.4-.32.83-.61,1.09Z"/></svg>