<?xml version="1.0" encoding="UTF-8"?><svg id="Reps" xmlns="http://www.w3.org/2000/svg" viewBox="0 0 360 360"><path d="m344.64,294.39s-17.61-41.74-27.99-52.35c-5.46-5.59-15.23.14-20.83.71s-9.01,1.42-13.13,1.89c-4.11.46-6.78,1.19-10.02,1.51-3.24.32-5.95.15-7.84-1.72-1.89-1.88-2.16-3.75-1.14-5.85,1.01-2.11,2.98-2.84,5.04-4.41,2.06-1.58,4.93-3.4,7.44-4.95,5.04-3.11,11.44-9.79,16.52-12.98,2.15-1.35,13.06-10.54,15.2-12.11,13.5-9.87,23.04-8.98,27.75-25.38,4.72-16.4-5.37-29.01-19.96-32.23-13.86-3.06-27.17,4.28-39.87,8.74-11.1,3.9-22.19,7.8-33.29,11.7-8.76,3.08-17.76,3.49-26.74,6.06-10.16,2.9-15.65-8.89-8.96-15.47,16.39-16.12,35.15-30.49,53.69-44.02,11.63-8.49,19.34-18.84,20.92-33.11,1.22-10.99-1.93-21.2-8.48-29.83-6.54-8.62-14.19-11.93-25.04-14.36-20.59-4.62-40.99-2.02-57.58,12.06-6.25,5.3-19.57,16.27-25.29,21.77-10.8,10.39-12.97,15.77-23.58,26.26l-70.66,70.3c-6.34,6.62-11.18,10.92-17.24,16.87-.51.5-1.01.6-1.78,1.01-6.02,3.22-14.5,14.37-18.1,18.19-6.93,7.35-13.53,10.76-18.08,17.95-9.68,15.28-9.02,38.77,5.96,49.21,21.78,15.18,56.01-.68,77.77-7.47,26.7-8.34,40.96-11.33,67.64-18.38,4.33-1.14,7.92-2.57,12.82-3.55,4.9-.98,9.66,3.46,7.49,8.83-4.23,10.47-15,23.61-14.52,35.23.49,11.87,10.87,19.06,21.43,18.58,6.77-.3,12.69-4.24,19-6.22,9.26-2.9,18.78-4.91,28.22-7.05,6.18-1.4,11.72-4.48,17.85-6.09,1.61-.42,3.91-.58,6.11.88,2.2,1.46,6.75,4.04,9.33,5.48,17.82,9.96,35.22,20.42,52.61,31.37,2.51,1.58,5.06,3.18,7.91,3.99,4.42,1.26,9.28-.02,12.24-3.58,6.76-8.15,1.82-19.09-2.86-27.45Z"/></svg>
