<?xml version="1.0" encoding="UTF-8"?><svg id="Icons" xmlns="http://www.w3.org/2000/svg" width="30" height="30" viewBox="0 0 30 30"><path d="m29.18,24.85s-1.52-3.6-2.41-4.51c-.47-.48-1.31.01-1.79.06s-.78.12-1.13.16c-.35.04-.58.1-.86.13-.28.03-.51.01-.68-.15-.16-.16-.19-.32-.1-.5.09-.18.26-.24.43-.38s.43-.29.64-.43c.43-.27.99-.84,1.42-1.12.18-.12,1.12-.91,1.31-1.04,1.16-.85,1.98-.77,2.39-2.19.41-1.41-.46-2.5-1.72-2.78-1.19-.26-2.34.37-3.43.75-.96.34-1.91.67-2.87,1.01-.75.27-1.53.3-2.3.52-.88.25-1.35-.77-.77-1.33,1.41-1.39,3.03-2.63,4.63-3.79,1-.73,1.67-1.62,1.8-2.85.1-.95-.17-1.83-.73-2.57-.56-.74-1.22-1.03-2.16-1.24-1.77-.4-3.53-.17-4.96,1.04-.54.46-1.69,1.4-2.18,1.88-.93.89-1.12,1.36-2.03,2.26l-6.09,6.06c-.55.57-.96.94-1.49,1.45-.04.04-.09.05-.15.09-.52.28-1.25,1.24-1.56,1.57-.6.63-1.17.93-1.56,1.55C0,19.81.06,21.84,1.35,22.74c1.88,1.31,4.83-.06,6.7-.64,2.3-.72,3.53-.98,5.83-1.58.37-.1.68-.22,1.1-.31.42-.08.83.3.65.76-.36.9-1.29,2.03-1.25,3.04.04,1.02.94,1.64,1.85,1.6.58-.03,1.09-.37,1.64-.54.8-.25,1.62-.42,2.43-.61.53-.12,1.01-.39,1.54-.52.14-.04.34-.05.53.08s.58.35.8.47c1.53.86,3.03,1.76,4.53,2.7.22.14.44.27.68.34.38.11.8,0,1.05-.31.58-.7.16-1.64-.25-2.36Z"/></svg>