<?xml version="1.0" encoding="UTF-8"?><svg id="Icons" xmlns="http://www.w3.org/2000/svg" width="60" height="60" viewBox="0 0 60 60"><path d="m57.7,49.24s-2.96-7.02-4.71-8.81c-.92-.94-2.56.02-3.5.12s-1.52.24-2.21.32c-.69.08-1.14.2-1.69.25-.55.05-1,.03-1.32-.29-.32-.32-.36-.63-.19-.98.17-.35.5-.48.85-.74s.83-.57,1.25-.83c.85-.52,1.92-1.65,2.78-2.18.36-.23,2.2-1.77,2.56-2.04,2.27-1.66,3.88-1.51,4.67-4.27.79-2.76-.9-4.88-3.36-5.42-2.33-.51-4.57.72-6.71,1.47-1.87.66-3.73,1.31-5.6,1.97-1.47.52-2.99.59-4.5,1.02-1.71.49-2.63-1.5-1.51-2.6,2.76-2.71,5.91-5.13,9.03-7.41,1.96-1.43,3.25-3.17,3.52-5.57.2-1.85-.33-3.57-1.43-5.02-1.1-1.45-2.39-2.01-4.21-2.42-3.46-.78-6.9-.34-9.69,2.03-1.05.89-3.29,2.74-4.25,3.66-1.82,1.75-2.18,2.65-3.97,4.42l-11.89,11.83c-1.07,1.11-1.88,1.84-2.9,2.84-.08.08-.17.1-.3.17-1.01.54-2.44,2.42-3.05,3.06-1.17,1.24-2.28,1.81-3.04,3.02-1.63,2.57-1.52,6.52,1,8.28,3.66,2.55,9.42-.11,13.08-1.26,4.49-1.4,6.89-1.91,11.38-3.09.73-.19,1.33-.43,2.16-.6.82-.17,1.62.58,1.26,1.48-.71,1.76-2.52,3.97-2.44,5.93.08,2,1.83,3.21,3.61,3.13,1.14-.05,2.13-.71,3.2-1.05,1.56-.49,3.16-.83,4.75-1.19,1.04-.24,1.97-.75,3-1.03.27-.07.66-.1,1.03.15s1.14.68,1.57.92c3,1.68,5.93,3.44,8.85,5.28.42.27.85.53,1.33.67.74.21,1.56,0,2.06-.6,1.14-1.37.31-3.21-.48-4.62Z"/></svg>