<?xml version="1.0" encoding="UTF-8"?><svg id="Icons" xmlns="http://www.w3.org/2000/svg" width="30" height="30" viewBox="0 0 30 30"><path d="m29.17,14.83c-.21-.12-.37-.21-.43-.23l-5.28-2.2c-.22-.11-.34-.23-.38-.36-.05-.18.08-.41.19-.58l3.69-5.34s.02-.03.03-.05c0,0,0-.01,0-.02.42-.77-.32-1.66-1.16-1.41-.14.04-.25.08-.3.11-1.03.62-2.2,1-3.33,1.37-.56.18-1.13.37-1.69.59-.23.09-.29.06-.29.06,0,0-.02-.03-.04-.09-.27-1.05-.57-2.28-.75-3.45-.06-.37-.13-.75-.2-1.12-.05-.25-.1-.51-.14-.76-.02-.11-.06-.31-.11-.55-.12-.57-.87-.7-1.17-.21-.16.26-.29.49-.34.62l-2.52,3.13c-.38.35-.78.71-1.15,1.09-.3.32-.43.31-1.04.15l-4.96-1.68s-.03-.01-.05-.01c-.89-.21-1.67-.35-2.57-.31-.14,0-.39,0-.64,0-.38-.01-.64.37-.5.72.08.2.16.39.2.51.04.11.12.28.16.39.09.17.16.34.24.51.18.4.33.68.69,1.2.56.82,1.22,1.61,1.78,2.43l.16.23c.29.43.31.58.08.78l-2.22,1.73c-.24.16-.47.33-.7.5-.81.58-1.65,1.17-2.55,1.63-.33.16-.85.53-1.29.85-.34.25-.26.77.14.91.56.19,1.21.41,1.46.46.03,0,.06.01.09.03l4.7,1.88c-.06.08-.11.17-.17.25-.24.36-.47.7-.72,1.01-1.13,1.42-1.96,2.85-2.54,4.36-.02.06-.05.12-.09.17-.05.08-.18.35-.33.63-.2.38.14.83.56.75.4-.08.79-.16.95-.2l.07-.02c2.21-.58,4.38-1.36,6.48-2.11l.57-.2c.44-.16.77-.18,1-.06.21.11.36.33.48.74,0,.03.02.05.03.08l2.38,4.68c.11.21.31.64.52,1.03.21.4.79.36.95-.06l.66-1.77.27-.73c.38-1.02.77-2.07,1.11-3.12.17-.53.34-1.02.51-1.09.18-.08.67.15,1.16.39.1.05.2.11.3.18.12.07.23.15.35.21l.15.07c.62.3,1.26.62,1.91.9.19.08.61.24,1.04.38.44.15.84-.29.64-.71-.19-.4-.38-.8-.49-.95-.63-.91-.97-1.94-1.32-3.02-.24-.74-.49-1.51-.85-2.24-.29-.6-.27-.75-.25-.79.07-.13.75-.19,1.04-.22l5.08-.35c.1.01.26,0,.46-.03.83-.13,1.02-1.24.29-1.65Zm-10.1,3.08l-8.12.28c-.25,0-.46-.2-.45-.45l.26-5.5c.01-.23.2-.41.42-.41l7.68-.18c.24,0,.44.18.44.42l.18,5.41c0,.24-.18.44-.42.45Z"/><circle cx="14.88" cy="15.02" r="1.98"/></svg>