<?xml version="1.0" encoding="UTF-8"?><svg id="Reps" xmlns="http://www.w3.org/2000/svg" viewBox="0 0 360 360"><path d="m346.77,177.97c-2.51-1.41-4.4-2.44-5.07-2.74l-62.16-25.94c-2.56-1.26-4.05-2.69-4.45-4.25-.55-2.15.93-4.86,2.28-6.78l43.42-62.87c.13-.19.23-.35.34-.55.03-.06.06-.12.1-.18,4.9-9.12-3.71-19.55-13.62-16.55-1.64.5-2.88.95-3.5,1.32-12.14,7.32-25.87,11.81-39.14,16.16-6.57,2.14-13.36,4.37-19.94,6.92-2.73,1.06-3.44.72-3.47.71-.05-.03-.29-.3-.49-1.1-3.13-12.41-6.66-26.8-8.81-40.64-.68-4.38-1.54-8.79-2.41-13.2-.59-2.99-1.18-5.99-1.71-8.99-.23-1.32-.7-3.67-1.26-6.42-1.36-6.66-10.18-8.26-13.76-2.48-1.86,3.01-3.42,5.72-4.02,7.27l-29.63,36.82c-4.52,4.11-9.2,8.35-13.53,12.85-3.59,3.72-5.03,3.68-12.23,1.79l-58.38-19.74c-.19-.06-.39-.12-.59-.17-10.51-2.53-19.67-4.12-30.24-3.6-1.64.08-4.57.01-7.55-.1-4.47-.17-7.58,4.38-5.84,8.49,1,2.36,1.92,4.64,2.38,6.04.53,1.27,1.37,3.32,1.9,4.59,1.02,1.95,1.92,3.96,2.82,5.96,2.14,4.75,3.93,8.04,8.11,14.11,6.65,9.65,14.34,18.93,20.9,28.59l1.86,2.74c3.45,5.07,3.59,6.82.95,9.21l-26.18,20.4c-2.78,1.93-5.53,3.89-8.29,5.85-9.52,6.78-19.38,13.78-30,19.14-3.83,1.93-10.01,6.22-15.18,9.99-3.98,2.91-3.04,9.09,1.62,10.71,6.59,2.28,14.27,4.85,17.13,5.4.39.08.73.16,1.1.31l55.36,22.11c-.68,1-1.34,1.98-1.99,2.94-2.85,4.21-5.54,8.2-8.44,11.83-13.27,16.69-23.06,33.48-29.93,51.36-.26.68-.64,1.36-1,2.03-.54,1-2.13,4.09-3.85,7.47-2.31,4.53,1.59,9.75,6.59,8.79,4.67-.89,9.31-1.83,11.14-2.32l.83-.22c25.95-6.84,51.52-16.01,76.24-24.87l6.71-2.41c5.23-1.87,9.09-2.1,11.82-.69,2.41,1.25,4.2,3.91,5.68,8.73.09.3.21.61.35.88l28.06,55.06c1.26,2.52,3.67,7.52,6.15,12.17,2.48,4.66,9.3,4.2,11.13-.75l7.71-20.82,3.21-8.62c4.46-11.95,9.08-24.32,13.02-36.72,1.99-6.26,3.94-11.95,6.03-12.84,2.16-.93,7.9,1.73,13.62,4.53,1.22.6,2.38,1.34,3.54,2.06,1.37.86,2.73,1.71,4.18,2.42l1.75.86c7.29,3.58,14.82,7.28,22.42,10.6,2.24.98,7.23,2.79,12.22,4.53,5.12,1.79,9.85-3.45,7.56-8.37-2.21-4.73-4.49-9.37-5.77-11.2-7.46-10.73-11.4-22.78-15.57-35.53-2.86-8.75-5.82-17.79-10.01-26.3-3.45-7.01-3.23-8.82-2.98-9.28.88-1.56,8.87-2.29,12.2-2.6l59.81-4.07c1.17.15,3.08-.02,5.38-.38,9.73-1.54,11.95-14.63,3.36-19.45Zm-118.84,36.21l-95.51,3.24c-2.98.1-5.42-2.37-5.28-5.35l3.11-64.77c.13-2.68,2.3-4.8,4.98-4.86l90.33-2.16c2.8-.07,5.14,2.14,5.23,4.94l2.07,63.7c.09,2.82-2.12,5.18-4.93,5.27Z"/><circle cx="178.56" cy="180.2" r="23.28"/></svg>