<?xml version="1.0" encoding="UTF-8"?><svg id="Icons" xmlns="http://www.w3.org/2000/svg" width="60" height="60" viewBox="0 0 60 60"><path d="m44.96,16.44c-2.54-2.11-5.15-4.1-7.39-6.55-2.01-2.33-4.48-4.07-7.06-5.71-1.95-1.24-2.05-.46-3.94.94l-14.15,14.35L2.94,28.72c-1.31,1.35-1.26,1.51-.03,2.99.35.43.76.8,1.15,1.2,4.61,4.67,9.22,9.34,13.82,14.02l4.55,4.7c1.22,1.26,2.47,2.49,3.65,3.79.93,1.02,1.98,1.23,3.26.82,1.53-.49,2.82-1.37,4.02-2.4l23.79-22.19c1.14-1.24,1.17-2.29.07-3.62-3.6-4.38-7.96-8.02-12.26-11.6Zm-27.93,27.75c-3.26-3.65-6.76-7.07-10.37-10.37-.68-.62-1.27-1.35-1.9-2.03-.51-.55-.51-1.05-.12-1.73,2.9-2.84,5.45-5.28,8.63-8.25,2.32-1.7,4.16-3.67,6.38-5.47-.81,2.04-.09,3.74.58,5.56.8,2.19.35,4.55.24,6.84-.23,4.78-.86,9.53-.77,14.33.02.83.37,2.08-.73,2.44-.86.28-1.39-.71-1.93-1.31Zm20.64,0c-.08.43.03,1.09-.09,1.53-.54,2.06-.52,2.12-1.39,3.09-1.5,1.67-3.38,2.86-5.04,4.32-1.15,1.02-2.14,1.26-3.65.27-1.47-.96-2.92-1.9-4.19-3.11-.56-.54-.72-.95-.16-1.84,1.35-2.14,3.48-3.54,4.94-5.4,1.97-2.52,4.3-4.53,6.55-6.69,1.03-.99,2.23-1.81,3.77-3.03-.09,3.99-.11,7.45-.74,10.86Zm3.13-27.28c-1.25,2.41-.88,4.99-1.01,7.52,0,.09-.03.18-.03.28,0,1.44-.17,2.87-1.7,3.46-1.46.56-2.38-.65-3.31-1.45-2.52-2.16-3.65-3.45-6.13-5.66.05-.05-1.23-1.06-1.18-1.11-1.31-1.31-2.66-2.58-3.91-3.93-1.71-1.85-1.65-2.71-.24-4.78,1.16-1.69,2.5-3.2,3.9-4.67.95-1,1.83-1.26,3.1-.26,2.46,1.95,4.34,3.88,6.71,6.09.58.54,1.36,1.15,2.13,1.78.89.73,2.1,1.91,1.67,2.74Z"/><rect x="10.41" y="11.32" width="37.35" height="37.35" transform="translate(29.73 -11.78) rotate(45)" fill="none" stroke="#000" stroke-linecap="round" stroke-linejoin="round" stroke-width="4"/></svg>