<?xml version="1.0" encoding="UTF-8"?><svg id="Reps" xmlns="http://www.w3.org/2000/svg" viewBox="0 0 360 360"><defs><style>.cls-1{fill:none;stroke:#000;stroke-linecap:round;stroke-linejoin:round;stroke-width:8px;}</style></defs><path d="m270.82,97.72c-15.4-12.83-31.26-24.9-44.83-39.76-12.19-14.15-27.17-24.68-42.85-34.67-11.85-7.54-12.43-2.79-23.9,5.69l-85.9,87.11-57.55,56.13c-7.93,8.18-7.67,9.16-.19,18.17,2.14,2.58,4.63,4.88,7,7.28,27.96,28.35,55.94,56.69,83.87,85.08l27.62,28.55c7.4,7.65,14.99,15.13,22.16,23,5.64,6.19,12.04,7.49,19.78,5,9.28-2.99,17.09-8.29,24.39-14.54l144.37-134.67c6.89-7.55,7.1-13.87.45-21.97-21.82-26.58-48.31-48.65-74.41-70.4Zm-169.51,168.43c-19.81-22.16-41-42.93-62.95-62.95-4.13-3.77-7.69-8.18-11.52-12.29-3.07-3.31-3.08-6.36-.75-10.51,17.62-17.23,33.07-32.03,52.38-50.05,14.08-10.3,25.23-22.29,38.69-33.22-4.91,12.39-.56,22.68,3.5,33.73,4.87,13.27,2.12,27.64,1.45,41.49-1.41,28.99-5.21,57.84-4.66,86.97.1,5.03,2.25,12.63-4.42,14.79-5.24,1.7-8.46-4.31-11.72-7.96Zm125.26.04c-.48,2.6.18,6.6-.52,9.3-3.26,12.53-3.14,12.84-8.46,18.76-9.09,10.11-20.53,17.35-30.61,26.24-7,6.17-12.97,7.65-22.16,1.62-8.91-5.84-17.74-11.51-25.41-18.87-3.42-3.28-4.36-5.76-.94-11.17,8.2-12.98,21.12-21.46,29.97-32.78,11.93-15.27,26.1-27.52,39.74-40.62,6.27-6.03,13.56-11,22.85-18.41-.54,24.23-.67,45.18-4.46,65.93Zm19.01-165.58c-7.62,14.65-5.34,30.29-6.13,45.65-.03.56-.18,1.11-.18,1.67.03,8.73-1.05,17.41-10.34,20.99-8.89,3.42-14.45-3.97-20.1-8.81-15.31-13.13-22.13-20.93-37.18-34.36.3-.3-7.46-6.44-7.16-6.75-7.94-7.94-16.13-15.65-23.76-23.88-10.4-11.2-10.01-16.43-1.43-28.99,7.01-10.27,15.2-19.39,23.69-28.33,5.78-6.08,11.13-7.67,18.81-1.57,14.95,11.86,26.34,23.56,40.7,36.93,3.54,3.29,8.27,7,12.94,10.83,5.39,4.41,12.77,11.57,10.15,16.62Z"/><rect class="cls-1" x="61.1" y="66.66" width="226.68" height="226.68" transform="translate(178.37 -70.63) rotate(45)"/></svg>