<?xml version="1.0" encoding="UTF-8"?><svg id="Icons" xmlns="http://www.w3.org/2000/svg" width="30" height="30" viewBox="0 0 30 30"><path d="m22.46,8.24c-1.26-1.05-2.57-2.04-3.68-3.26-1-1.16-2.23-2.03-3.52-2.85-.97-.62-1.02-.23-1.96.47l-7.05,7.15L1.52,14.36c-.65.67-.63.75-.02,1.49.18.21.38.4.57.6,2.3,2.33,4.59,4.65,6.89,6.99l2.27,2.34c.61.63,1.23,1.24,1.82,1.89.46.51.99.62,1.62.41.76-.25,1.4-.68,2-1.19l11.85-11.06c.57-.62.58-1.14.04-1.8-1.79-2.18-3.97-3.99-6.11-5.78Zm-13.92,13.83c-1.63-1.82-3.37-3.52-5.17-5.17-.34-.31-.63-.67-.95-1.01-.25-.27-.25-.52-.06-.86,1.45-1.41,2.72-2.63,4.3-4.11,1.16-.85,2.07-1.83,3.18-2.73-.4,1.02-.05,1.86.29,2.77.4,1.09.17,2.27.12,3.41-.12,2.38-.43,4.75-.38,7.14,0,.41.19,1.04-.36,1.21-.43.14-.69-.35-.96-.65Zm10.29,0c-.04.21.01.54-.04.76-.27,1.03-.26,1.05-.69,1.54-.75.83-1.69,1.42-2.51,2.15-.57.51-1.06.63-1.82.13-.73-.48-1.46-.95-2.09-1.55-.28-.27-.36-.47-.08-.92.67-1.07,1.73-1.76,2.46-2.69.98-1.25,2.14-2.26,3.26-3.34.52-.49,1.11-.9,1.88-1.51-.04,1.99-.06,3.71-.37,5.41Zm1.56-13.6c-.63,1.2-.44,2.49-.5,3.75,0,.05-.02.09-.01.14,0,.72-.09,1.43-.85,1.72-.73.28-1.19-.33-1.65-.72-1.26-1.08-1.82-1.72-3.05-2.82.02-.02-.61-.53-.59-.55-.65-.65-1.32-1.29-1.95-1.96-.85-.92-.82-1.35-.12-2.38.58-.84,1.25-1.59,1.95-2.33.47-.5.91-.63,1.54-.13,1.23.97,2.16,1.93,3.34,3.03.29.27.68.58,1.06.89.44.36,1.05.95.83,1.36Z"/><rect x="5.24" y="5.69" width="18.61" height="18.61" transform="translate(14.87 -5.89) rotate(45)" fill="none" stroke="#000" stroke-linecap="round" stroke-linejoin="round"/></svg>